<?xml version="1.0" encoding="UTF-8" standalone="no"?>
<!-- Created with Inkscape (http://www.inkscape.org/) -->

<svg
   xmlns:dc="http://purl.org/dc/elements/1.1/"
   xmlns:cc="http://creativecommons.org/ns#"
   xmlns:rdf="http://www.w3.org/1999/02/22-rdf-syntax-ns#"
   xmlns:svg="http://www.w3.org/2000/svg"
   xmlns="http://www.w3.org/2000/svg"
   xmlns:xlink="http://www.w3.org/1999/xlink"
   xmlns:sodipodi="http://sodipodi.sourceforge.net/DTD/sodipodi-0.dtd"
   xmlns:inkscape="http://www.inkscape.org/namespaces/inkscape"
   inkscape:export-ydpi="90"
   inkscape:export-xdpi="90"
   inkscape:export-filename="D:\www\moopack\style\tree\classic\images\states.png"
   sodipodi:docname="icons.svg"
   inkscape:version="0.48.2 r9819"
   sodipodi:version="0.32"
   id="svg249"
   height="54"
   width="72"
   version="1.1">
  <defs
     id="defs3">
    <inkscape:path-effect
       effect="spiro"
       id="path-effect3941"
       is_visible="true" />
    <inkscape:path-effect
       effect="spiro"
       id="path-effect3920"
       is_visible="true" />
    <inkscape:path-effect
       effect="spiro"
       id="path-effect3914"
       is_visible="true" />
    <inkscape:path-effect
       effect="spiro"
       id="path-effect3910"
       is_visible="true" />
    <inkscape:path-effect
       effect="spiro"
       id="path-effect3906"
       is_visible="true" />
    <inkscape:path-effect
       effect="spiro"
       id="path-effect3131"
       is_visible="true" />
    <inkscape:path-effect
       effect="spiro"
       id="path-effect3127"
       is_visible="true" />
    <inkscape:path-effect
       effect="spiro"
       id="path-effect3123"
       is_visible="true" />
    <inkscape:path-effect
       effect="spiro"
       id="path-effect3119"
       is_visible="true" />
    <linearGradient
       id="linearGradient9081">
      <stop
         style="stop-color:#75507b;stop-opacity:1.0000000;"
         offset="0.0000000"
         id="stop9083" />
      <stop
         style="stop-color:#ffffff;stop-opacity:1.0000000;"
         offset="1.0000000"
         id="stop9085" />
    </linearGradient>
    <linearGradient
       id="linearGradient9075">
      <stop
         style="stop-color:#3465a4;stop-opacity:1.0000000;"
         offset="0.0000000"
         id="stop9077" />
      <stop
         style="stop-color:#ffffff;stop-opacity:1.0000000;"
         offset="1.0000000"
         id="stop9079" />
    </linearGradient>
    <linearGradient
       id="linearGradient2309">
      <stop
         id="stop2311"
         offset="0"
         style="stop-color:#73d216" />
      <stop
         id="stop2313"
         offset="1.0000000"
         style="stop-color:#4e9a06" />
    </linearGradient>
    <radialGradient
       inkscape:collect="always"
       xlink:href="#linearGradient2309"
       id="radialGradient11961"
       cx="13.904816"
       cy="36.435665"
       fx="13.904816"
       fy="36.435665"
       r="16.505941"
       gradientTransform="matrix(0.623397,-0.0047829,0.00236053,0.791668,8.056403,-15.74911)"
       gradientUnits="userSpaceOnUse" />
    <linearGradient
       id="linearGradient8650"
       inkscape:collect="always">
      <stop
         id="stop8652"
         offset="0"
         style="stop-color:#ffffff;stop-opacity:1;" />
      <stop
         id="stop8654"
         offset="1"
         style="stop-color:#ffffff;stop-opacity:0;" />
    </linearGradient>
    <radialGradient
       inkscape:collect="always"
       xlink:href="#linearGradient8650"
       id="radialGradient7994"
       cx="16.620785"
       cy="-29.734715"
       fx="16.620785"
       fy="-29.734715"
       r="16.5"
       gradientTransform="matrix(-1.367676,-5.372224e-4,-1.638102e-4,0.916667,35.94534,33.13675)"
       gradientUnits="userSpaceOnUse" />
    <linearGradient
       id="linearGradient7648"
       gradientUnits="userSpaceOnUse"
       x1="21.9326"
       y1="24.627399"
       x2="21.9326"
       y2="7.1090999">
      <stop
         offset="0"
         style="stop-color:#8595bc;stop-opacity:1;"
         id="stop7650" />
      <stop
         offset="1"
         style="stop-color:#041a3b;stop-opacity:1;"
         id="stop7652" />
    </linearGradient>
    <linearGradient
       inkscape:collect="always"
       id="linearGradient4542">
      <stop
         style="stop-color:#000000;stop-opacity:1;"
         offset="0"
         id="stop4544" />
      <stop
         style="stop-color:#000000;stop-opacity:0;"
         offset="1"
         id="stop4546" />
    </linearGradient>
    <linearGradient
       id="linearGradient15662">
      <stop
         id="stop15664"
         offset="0.0000000"
         style="stop-color:#ffffff;stop-opacity:1.0000000;" />
      <stop
         id="stop15666"
         offset="1.0000000"
         style="stop-color:#f8f8f8;stop-opacity:1.0000000;" />
    </linearGradient>
    <radialGradient
       id="aigrd3"
       cx="20.892099"
       cy="64.567902"
       r="5.257"
       fx="20.892099"
       fy="64.567902"
       gradientUnits="userSpaceOnUse">
      <stop
         offset="0"
         style="stop-color:#F0F0F0"
         id="stop15573" />
      <stop
         offset="1.0000000"
         style="stop-color:#9a9a9a;stop-opacity:1.0000000;"
         id="stop15575" />
    </radialGradient>
    <radialGradient
       id="aigrd2"
       cx="20.892099"
       cy="114.5684"
       r="5.256"
       fx="20.892099"
       fy="114.5684"
       gradientUnits="userSpaceOnUse">
      <stop
         offset="0"
         style="stop-color:#F0F0F0"
         id="stop15566" />
      <stop
         offset="1.0000000"
         style="stop-color:#9a9a9a;stop-opacity:1.0000000;"
         id="stop15568" />
    </radialGradient>
    <linearGradient
       id="linearGradient269">
      <stop
         id="stop270"
         offset="0.0000000"
         style="stop-color:#a3a3a3;stop-opacity:1.0000000;" />
      <stop
         id="stop271"
         offset="1.0000000"
         style="stop-color:#4c4c4c;stop-opacity:1.0000000;" />
    </linearGradient>
    <linearGradient
       id="linearGradient259">
      <stop
         id="stop260"
         offset="0"
         style="stop-color:#eeeeee;stop-opacity:1;" />
      <stop
         id="stop261"
         offset="1.0000000"
         style="stop-color:#ffffff;stop-opacity:1.0000000;" />
    </linearGradient>
    <radialGradient
       inkscape:collect="always"
       xlink:href="#linearGradient269"
       id="radialGradient15656"
       gradientUnits="userSpaceOnUse"
       gradientTransform="matrix(0.968273,0,0,0.263471,3.494596,2.036186)"
       cx="8.824419"
       cy="3.7561285"
       fx="8.824419"
       fy="3.7561285"
       r="37.751713" />
    <radialGradient
       inkscape:collect="always"
       xlink:href="#linearGradient15662"
       id="radialGradient15668"
       gradientUnits="userSpaceOnUse"
       gradientTransform="matrix(0.968273,0,0,0.263471,3.353553,2.459315)"
       cx="8.1435566"
       cy="7.2678967"
       fx="8.1435566"
       fy="7.2678967"
       r="38.158695" />
    <radialGradient
       inkscape:collect="always"
       xlink:href="#linearGradient4542"
       id="radialGradient4548"
       cx="24.306795"
       cy="42.07798"
       fx="24.306795"
       fy="42.07798"
       r="15.821514"
       gradientTransform="matrix(1,0,0,0.284916,0,30.08928)"
       gradientUnits="userSpaceOnUse" />
    <radialGradient
       inkscape:collect="always"
       xlink:href="#linearGradient2309"
       id="radialGradient9019"
       gradientUnits="userSpaceOnUse"
       gradientTransform="matrix(0.720168,-0.0047829,0.00272696,0.791668,7.370202,-7.571017)"
       cx="13.904816"
       cy="36.435665"
       fx="13.904816"
       fy="36.435665"
       r="16.505941" />
    <radialGradient
       inkscape:collect="always"
       xlink:href="#linearGradient8650"
       id="radialGradient9021"
       gradientUnits="userSpaceOnUse"
       gradientTransform="matrix(-1.579983,-5.372224e-4,-1.892388e-4,0.916667,39.58841,41.31484)"
       cx="16.620785"
       cy="-29.734715"
       fx="16.620785"
       fy="-29.734715"
       r="16.5" />
    <linearGradient
       inkscape:collect="always"
       xlink:href="#linearGradient259"
       id="linearGradient9043"
       x1="6.3510098"
       y1="8.4442968"
       x2="41.731094"
       y2="8.4442968"
       gradientUnits="userSpaceOnUse"
       gradientTransform="translate(0.141043,-0.423129)" />
  </defs>
  <sodipodi:namedview
     inkscape:window-y="-8"
     inkscape:window-x="-8"
     inkscape:window-height="972"
     inkscape:window-width="1280"
     inkscape:document-units="px"
     inkscape:grid-bbox="true"
     showgrid="true"
     inkscape:current-layer="layer6"
     inkscape:cy="23.811325"
     inkscape:cx="33.113797"
     inkscape:zoom="11.313708"
     inkscape:pageshadow="2"
     inkscape:pageopacity="0.0"
     borderopacity="0.25490196"
     bordercolor="#666666"
     pagecolor="#ffffff"
     id="base"
     inkscape:showpageshadow="true"
     fill="#729fcf"
     showguides="true"
     inkscape:guide-bbox="true"
     inkscape:window-maximized="1"
     inkscape:snap-grids="true"
     inkscape:snap-to-guides="true"
     objecttolerance="10000"
     guidetolerance="10000"
     inkscape:snap-bbox="false"
     inkscape:bbox-paths="false"
     inkscape:snap-bbox-midpoints="false"
     inkscape:snap-global="true"
     width="72px"
     borderlayer="false"
     showborder="true"
     fit-margin-top="0"
     fit-margin-left="0"
     fit-margin-right="0"
     fit-margin-bottom="0">
    <inkscape:grid
       type="xygrid"
       id="grid3916"
       empspacing="18"
       visible="true"
       enabled="true"
       snapvisiblegridlinesonly="true"
       dotted="false" />
  </sodipodi:namedview>
  <metadata
     id="metadata4">
    <rdf:RDF>
      <cc:Work
         rdf:about="">
        <dc:format>image/svg+xml</dc:format>
        <dc:type
           rdf:resource="http://purl.org/dc/dcmitype/StillImage" />
        <dc:title></dc:title>
        <dc:subject>
          <rdf:Bag>
            <rdf:li>rich</rdf:li>
            <rdf:li>text</rdf:li>
            <rdf:li>document</rdf:li>
            <rdf:li>pdf</rdf:li>
            <rdf:li>openoffice</rdf:li>
            <rdf:li>word</rdf:li>
            <rdf:li>rtf</rdf:li>
          </rdf:Bag>
        </dc:subject>
        <cc:license
           rdf:resource="http://creativecommons.org/licenses/by-sa/2.0/" />
        <dc:creator>
          <cc:Agent>
            <dc:title>Jakub Steiner</dc:title>
          </cc:Agent>
        </dc:creator>
        <dc:source>http://jimmac.musichall.cz</dc:source>
      </cc:Work>
      <cc:License
         rdf:about="http://creativecommons.org/licenses/by/2.0/">
        <cc:permits
           rdf:resource="http://web.resource.org/cc/Reproduction" />
        <cc:permits
           rdf:resource="http://web.resource.org/cc/Distribution" />
        <cc:requires
           rdf:resource="http://web.resource.org/cc/Notice" />
        <cc:requires
           rdf:resource="http://web.resource.org/cc/Attribution" />
        <cc:permits
           rdf:resource="http://web.resource.org/cc/DerivativeWorks" />
        <cc:requires
           rdf:resource="http://web.resource.org/cc/ShareAlike" />
      </cc:License>
    </rdf:RDF>
  </metadata>
  <g
     inkscape:groupmode="layer"
     id="layer6"
     inkscape:label="Shadow"
     transform="translate(68,-40)">
    <g
       id="g4062"
       transform="translate(-68,28)">
      <rect
         y="35"
         x="4"
         height="9"
         width="9"
         id="rect3943"
         style="fill:#998888;fill-opacity:1;stroke:none" />
      <path
         inkscape:connector-curvature="0"
         id="rect3949"
         transform="translate(0,30)"
         d="M 8,1 8,2 9,2 9,1 8,1 z M 8,3 8,4 9,4 9,3 8,3 z"
         style="fill:#998888;fill-opacity:1;stroke:none" />
      <path
         inkscape:connector-curvature="0"
         id="rect3953"
         transform="translate(0,30)"
         d="m 14,9 0,1 1,0 0,-1 -1,0 z m 2,0 0,1 1,0 0,-1 -1,0 z"
         style="fill:#998888;fill-opacity:1;stroke:none" />
      <rect
         transform="translate(0,30)"
         y="6"
         x="5"
         height="7"
         width="7"
         id="rect3980"
         style="fill:#ffffff;fill-opacity:1;stroke:none" />
      <g
         id="g3994">
        <path
           inkscape:connector-curvature="0"
           id="rect3990"
           transform="translate(0,30)"
           d="m 8,7 0,2 -2,0 0,1 2,0 0,2 1,0 0,-2 2,0 L 11,9 9,9 9,7 8,7 z"
           style="fill:#000000;fill-opacity:1;stroke:none" />
      </g>
      <path
         id="rect3949-4"
         d="m 8,45 0,1 1,0 0,-1 -1,0 z m 0,2 0,1 1,0 0,-1 -1,0 z"
         style="fill:#998888;fill-opacity:1;stroke:none"
         inkscape:connector-curvature="0" />
    </g>
    <g
       transform="translate(-50,28)"
       id="g4071">
      <rect
         style="fill:#998888;fill-opacity:1;stroke:none"
         id="rect4073"
         width="9"
         height="9"
         x="4"
         y="35" />
      <path
         style="fill:#998888;fill-opacity:1;stroke:none"
         d="M 8,1 8,2 9,2 9,1 8,1 z M 8,3 8,4 9,4 9,3 8,3 z"
         transform="translate(0,30)"
         id="path4075"
         inkscape:connector-curvature="0" />
      <path
         style="fill:#998888;fill-opacity:1;stroke:none"
         d="m 14,9 0,1 1,0 0,-1 -1,0 z m 2,0 0,1 1,0 0,-1 -1,0 z"
         transform="translate(0,30)"
         id="path4077"
         inkscape:connector-curvature="0" />
      <rect
         style="fill:#ffffff;fill-opacity:1;stroke:none"
         id="rect4079"
         width="7"
         height="7"
         x="5"
         y="6"
         transform="translate(0,30)" />
      <g
         id="g4081">
        <path
           style="fill:#000000;fill-opacity:1;stroke:none"
           d="m 8,7 0,2 -2,0 0,1 2,0 0,2 1,0 0,-2 2,0 L 11,9 9,9 9,7 8,7 z"
           transform="translate(0,30)"
           id="path4083"
           inkscape:connector-curvature="0" />
      </g>
    </g>
    <g
       id="g4087"
       transform="translate(-32,28)">
      <rect
         y="35"
         x="4"
         height="9"
         width="9"
         id="rect4089"
         style="fill:#998888;fill-opacity:1;stroke:none" />
      <path
         inkscape:connector-curvature="0"
         id="path4093"
         transform="translate(0,30)"
         d="m 14,9 0,1 1,0 0,-1 -1,0 z m 2,0 0,1 1,0 0,-1 -1,0 z"
         style="fill:#998888;fill-opacity:1;stroke:none" />
      <rect
         transform="translate(0,30)"
         y="6"
         x="5"
         height="7"
         width="7"
         id="rect4095"
         style="fill:#ffffff;fill-opacity:1;stroke:none" />
      <g
         id="g4097">
        <path
           inkscape:connector-curvature="0"
           id="path4099"
           transform="translate(0,30)"
           d="m 8,7 0,2 -2,0 0,1 2,0 0,2 1,0 0,-2 2,0 L 11,9 9,9 9,7 8,7 z"
           style="fill:#000000;fill-opacity:1;stroke:none" />
      </g>
      <path
         id="path4101"
         d="m 8,45 0,1 1,0 0,-1 -1,0 z m 0,2 0,1 1,0 0,-1 -1,0 z"
         style="fill:#998888;fill-opacity:1;stroke:none"
         inkscape:connector-curvature="0" />
    </g>
    <g
       transform="translate(-14,28)"
       id="g4103">
      <g
         id="g4113" />
      <g
         id="g4141"
         transform="translate(-54,18)">
        <rect
           y="35"
           x="4"
           height="9"
           width="9"
           id="rect4105"
           style="fill:#998888;fill-opacity:1;stroke:none" />
        <path
           inkscape:connector-curvature="0"
           id="path4107"
           transform="translate(0,30)"
           d="M 8,1 8,2 9,2 9,1 8,1 z M 8,3 8,4 9,4 9,3 8,3 z"
           style="fill:#998888;fill-opacity:1;stroke:none" />
        <path
           inkscape:connector-curvature="0"
           id="path4109"
           transform="translate(0,30)"
           d="m 14,9 0,1 1,0 0,-1 -1,0 z m 2,0 0,1 1,0 0,-1 -1,0 z"
           style="fill:#998888;fill-opacity:1;stroke:none" />
        <rect
           transform="translate(0,30)"
           y="6"
           x="5"
           height="7"
           width="7"
           id="rect4111"
           style="fill:#ffffff;fill-opacity:1;stroke:none" />
        <rect
           transform="translate(18,-24)"
           y="63"
           x="-12"
           height="1"
           width="5"
           id="rect4138"
           style="fill:#000000;fill-opacity:1;stroke:none" />
        <path
           id="path4117"
           d="m 8,45 0,1 1,0 0,-1 -1,0 z m 0,2 0,1 1,0 0,-1 -1,0 z"
           style="fill:#998888;fill-opacity:1;stroke:none"
           inkscape:connector-curvature="0" />
      </g>
      <g
         id="g4149"
         transform="translate(-36,18)">
        <rect
           style="fill:#998888;fill-opacity:1;stroke:none"
           id="rect4151"
           width="9"
           height="9"
           x="4"
           y="35" />
        <path
           style="fill:#998888;fill-opacity:1;stroke:none"
           d="M 8,1 8,2 9,2 9,1 8,1 z M 8,3 8,4 9,4 9,3 8,3 z"
           transform="translate(0,30)"
           id="path4153"
           inkscape:connector-curvature="0" />
        <path
           style="fill:#998888;fill-opacity:1;stroke:none"
           d="m 14,9 0,1 1,0 0,-1 -1,0 z m 2,0 0,1 1,0 0,-1 -1,0 z"
           transform="translate(0,30)"
           id="path4155"
           inkscape:connector-curvature="0" />
        <rect
           style="fill:#ffffff;fill-opacity:1;stroke:none"
           id="rect4157"
           width="7"
           height="7"
           x="5"
           y="6"
           transform="translate(0,30)" />
        <rect
           style="fill:#000000;fill-opacity:1;stroke:none"
           id="rect4159"
           width="5"
           height="1"
           x="-12"
           y="63"
           transform="translate(18,-24)" />
      </g>
      <g
         transform="translate(0,18)"
         id="g4163">
        <rect
           y="35"
           x="4"
           height="9"
           width="9"
           id="rect4165"
           style="fill:#998888;fill-opacity:1;stroke:none" />
        <path
           inkscape:connector-curvature="0"
           id="path4169"
           transform="translate(0,30)"
           d="m 14,9 0,1 1,0 0,-1 -1,0 z m 2,0 0,1 1,0 0,-1 -1,0 z"
           style="fill:#998888;fill-opacity:1;stroke:none" />
        <rect
           transform="translate(0,30)"
           y="6"
           x="5"
           height="7"
           width="7"
           id="rect4171"
           style="fill:#ffffff;fill-opacity:1;stroke:none" />
        <rect
           transform="translate(18,-24)"
           y="63"
           x="-12"
           height="1"
           width="5"
           id="rect4173"
           style="fill:#000000;fill-opacity:1;stroke:none" />
      </g>
      <g
         id="g4177"
         transform="translate(-18,18)">
        <rect
           style="fill:#998888;fill-opacity:1;stroke:none"
           id="rect4179"
           width="9"
           height="9"
           x="4"
           y="35" />
        <path
           style="fill:#998888;fill-opacity:1;stroke:none"
           d="m 14,9 0,1 1,0 0,-1 -1,0 z m 2,0 0,1 1,0 0,-1 -1,0 z"
           transform="translate(0,30)"
           id="path4183"
           inkscape:connector-curvature="0" />
        <rect
           style="fill:#ffffff;fill-opacity:1;stroke:none"
           id="rect4185"
           width="7"
           height="7"
           x="5"
           y="6"
           transform="translate(0,30)" />
        <rect
           style="fill:#000000;fill-opacity:1;stroke:none"
           id="rect4187"
           width="5"
           height="1"
           x="-12"
           y="63"
           transform="translate(18,-24)" />
        <path
           inkscape:connector-curvature="0"
           style="fill:#998888;fill-opacity:1;stroke:none"
           d="m 8,45 0,1 1,0 0,-1 -1,0 z m 0,2 0,1 1,0 0,-1 -1,0 z"
           id="path4189" />
      </g>
      <g
         id="g4191"
         transform="translate(0,18)">
        <path
           style="fill:#998888;fill-opacity:1;stroke:none"
           d="m -46,-5 0,1 1,0 0,-1 -1,0 z m 0,2 0,1 1,0 0,-1 -1,0 z m 0,2 0,1 1,0 0,-1 -1,0 z m 0,2 0,1 1,0 0,-1 -1,0 z m 0,2 0,1 1,0 0,-1 -1,0 z m 2,0 0,1 1,0 0,-1 -1,0 z m 2,0 0,1 1,0 0,-1 -1,0 z m 2,0 0,1 1,0 0,-1 -1,0 z m 2,0 0,1 1,0 0,-1 -1,0 z m -8,2 0,1 1,0 0,-1 -1,0 z m 0,2 0,1 1,0 0,-1 -1,0 z m 0,2 0,1 1,0 0,-1 -1,0 z m 0,2 0,1 1,0 0,-1 -1,0 z"
           id="path4195"
           inkscape:connector-curvature="0" />
        <path
           id="path4214"
           d="m -28,-5 0,1 1,0 0,-1 z m 0,2 0,1 1,0 0,-1 z m 0,2 0,1 1,0 0,-1 z m 0,2 0,1 1,0 0,-1 z m 0,2 0,1 1,0 0,-1 z m 2,0 0,1 1,0 0,-1 z m 2,0 0,1 1,0 0,-1 z m 2,0 0,1 1,0 0,-1 z m 2,0 0,1 1,0 0,-1 z"
           style="fill:#998888;fill-opacity:1;stroke:none"
           inkscape:connector-curvature="0"
           sodipodi:nodetypes="ccccccccccccccccccccccccccccccccccccccccccccc" />
        <path
           id="path4216"
           d="m -10,3 0,1 1,0 0,-1 z m 2,0 0,1 1,0 0,-1 z m 2,0 0,1 1,0 0,-1 z m 2,0 0,1 1,0 0,-1 z m 2,0 0,1 1,0 0,-1 z m -8,2 0,1 1,0 0,-1 z m 0,2 0,1 1,0 0,-1 z m 0,2 0,1 1,0 0,-1 z m 0,2 0,1 1,0 0,-1 z"
           style="fill:#998888;fill-opacity:1;stroke:none"
           inkscape:connector-curvature="0"
           sodipodi:nodetypes="ccccccccccccccccccccccccccccccccccccccccccccc" />
        <path
           id="path4220"
           d="M 8,3 8,4 9,4 9,3 z m 2,0 0,1 1,0 0,-1 z m 2,0 0,1 1,0 0,-1 z m 2,0 0,1 1,0 0,-1 z m 2,0 0,1 1,0 0,-1 z"
           style="fill:#998888;fill-opacity:1;stroke:none"
           inkscape:connector-curvature="0"
           sodipodi:nodetypes="ccccccccccccccccccccccccc" />
      </g>
    </g>
    <g
       transform="translate(-14,28)"
       id="g4119">
      <rect
         style="fill:#998888;fill-opacity:1;stroke:none"
         id="rect4121"
         width="9"
         height="9"
         x="4"
         y="35" />
      <path
         style="fill:#998888;fill-opacity:1;stroke:none"
         d="m 14,9 0,1 1,0 0,-1 -1,0 z m 2,0 0,1 1,0 0,-1 -1,0 z"
         transform="translate(0,30)"
         id="path4125"
         inkscape:connector-curvature="0" />
      <rect
         style="fill:#ffffff;fill-opacity:1;stroke:none"
         id="rect4127"
         width="7"
         height="7"
         x="5"
         y="6"
         transform="translate(0,30)" />
      <g
         id="g4129">
        <path
           style="fill:#000000;fill-opacity:1;stroke:none"
           d="m 8,7 0,2 -2,0 0,1 2,0 0,2 1,0 0,-2 2,0 L 11,9 9,9 9,7 8,7 z"
           transform="translate(0,30)"
           id="path4131"
           inkscape:connector-curvature="0" />
      </g>
    </g>
  </g>
  <g
     style="display:inline"
     inkscape:groupmode="layer"
     inkscape:label="Base"
     id="layer1"
     transform="translate(68,-40)" />
  <g
     inkscape:groupmode="layer"
     id="layer5"
     inkscape:label="Text"
     style="display:inline"
     transform="translate(68,-40)" />
</svg>
